<?xml version="1.0" standalone="no"?>
<!DOCTYPE svg PUBLIC "-//W3C//DTD SVG 20010904//EN"
 "http://www.w3.org/TR/2001/REC-SVG-20010904/DTD/svg10.dtd">
<svg version="1.0" xmlns="http://www.w3.org/2000/svg"
 width="687.000000pt" height="679.000000pt" viewBox="0 0 687.000000 679.000000"
 preserveAspectRatio="xMidYMid meet">

<g transform="translate(0.000000,679.000000) scale(0.100000,-0.100000)"
fill="#000000" stroke="none">
<path d="M3188 6470 c-435 -32 -852 -170 -1188 -395 -146 -98 -235 -172 -360
-301 -230 -237 -395 -513 -504 -840 l-36 -110 -73 -12 c-39 -7 -84 -15 -100
-18 l-27 -6 0 316 c0 246 3 316 13 316 29 0 135 60 174 99 23 24 55 68 70 99
25 51 28 68 28 157 0 89 -3 106 -28 157 -73 148 -241 233 -396 198 -120 -27
-206 -92 -257 -196 -26 -53 -29 -69 -29 -159 0 -89 3 -106 27 -155 40 -81 108
-144 190 -177 l68 -28 0 -352 c0 -315 -2 -353 -16 -361 -43 -24 -146 -141
-177 -201 -62 -119 -72 -162 -72 -306 0 -101 4 -142 19 -185 35 -104 79 -173
161 -255 94 -94 168 -135 306 -169 l93 -22 17 -60 c108 -377 337 -654 689
-834 125 -63 325 -136 456 -165 l82 -19 5 -75 c3 -42 9 -86 12 -98 6 -18 3
-23 -11 -23 -31 0 -211 -48 -324 -86 -58 -19 -156 -60 -219 -90 -382 -183
-611 -457 -693 -831 -17 -78 -22 -132 -22 -268 0 -159 1 -175 26 -250 79 -235
262 -405 508 -472 61 -17 163 -18 1755 -17 1126 0 1710 4 1750 11 247 43 428
166 539 367 54 97 77 185 83 316 12 256 -56 505 -195 720 -52 79 -224 247
-317 309 -171 112 -401 208 -644 267 l-112 27 8 31 c4 17 8 61 8 98 l0 66 119
31 c321 85 569 217 754 400 l59 58 94 6 c162 11 272 60 384 172 121 121 164
224 172 420 l6 130 58 62 c108 116 158 231 166 385 6 107 -6 193 -40 273 -33
82 -104 181 -168 236 l-59 52 0 353 c0 277 3 354 13 354 6 0 39 13 72 29 73
35 137 98 173 171 24 49 27 67 27 155 0 91 -3 105 -29 158 -74 145 -238 229
-388 198 -124 -25 -212 -92 -265 -199 -25 -51 -28 -68 -28 -157 0 -89 3 -106
28 -157 15 -31 47 -75 70 -99 39 -39 145 -99 175 -99 9 0 12 -71 12 -319 l0
-320 -28 10 c-16 5 -61 15 -101 22 l-72 12 -38 115 c-157 477 -466 881 -881
1149 -241 156 -541 277 -830 335 -210 42 -524 62 -742 46z m505 -155 c180 -21
309 -49 483 -106 783 -257 1305 -888 1425 -1724 21 -150 29 -364 19 -512 -22
-333 -88 -559 -224 -768 l-56 -85 -678 0 -679 0 -18 48 c-34 91 -90 153 -185
203 -45 24 -46 24 -390 24 -344 0 -345 0 -390 -24 -68 -36 -99 -62 -134 -111
-50 -69 -68 -124 -68 -213 0 -65 5 -88 30 -141 37 -79 96 -140 171 -175 l56
-26 335 0 335 0 57 27 c76 35 139 102 174 183 l28 65 608 0 c335 0 608 -2 608
-4 0 -3 -35 -30 -77 -61 -274 -200 -625 -306 -1183 -356 -221 -21 -927 -18
-1151 4 -627 62 -1011 205 -1271 475 -129 134 -203 254 -266 433 -104 294
-126 731 -57 1111 82 447 294 854 596 1144 352 337 841 551 1364 597 115 10
423 6 538 -8z m-2767 -344 c88 -40 141 -153 115 -249 -26 -98 -109 -162 -211
-162 -106 1 -188 65 -211 166 -32 140 67 264 211 264 32 0 72 -8 96 -19z
m5125 -4 c52 -28 104 -99 114 -157 15 -91 -38 -194 -119 -231 -53 -24 -139
-24 -192 0 -70 32 -124 117 -124 196 0 79 54 164 124 196 59 27 142 25 197 -4z
m-131 -2386 c0 -172 -104 -342 -252 -411 -52 -24 -148 -54 -148 -46 0 2 20 38
45 82 48 84 96 200 125 298 l16 60 94 22 c51 13 95 26 98 29 14 14 22 2 22
-34z m-2219 -336 c188 -67 180 -336 -10 -394 -52 -15 -550 -15 -602 0 -119 36
-181 172 -130 285 21 46 81 100 126 113 17 5 152 10 301 10 221 1 280 -2 315
-14z m-807 -834 c200 -14 796 -14 981 -1 145 11 393 37 433 47 21 5 22 2 22
-46 0 -89 -58 -171 -174 -249 -345 -231 -1003 -258 -1411 -57 -164 80 -252
168 -276 276 -18 77 -17 77 134 58 72 -10 204 -22 291 -28z m-432 -292 c93
-90 234 -166 406 -219 508 -155 1162 -62 1453 207 l58 55 58 -12 c260 -53 524
-155 698 -271 94 -63 225 -190 278 -272 119 -180 169 -353 170 -587 0 -112 -4
-146 -21 -201 -58 -179 -230 -335 -417 -379 -30 -7 -175 -14 -357 -17 l-308
-5 0 315 c0 287 -2 321 -20 380 -38 122 -138 226 -265 273 -47 18 -96 19 -745
22 -443 2 -723 -1 -773 -7 -173 -23 -309 -141 -353 -303 -10 -40 -14 -130 -14
-365 l0 -313 -312 0 c-344 0 -369 3 -488 61 -91 45 -206 161 -249 253 -53 110
-67 204 -53 355 26 288 114 487 293 662 175 172 424 296 764 380 61 15 120 28
132 28 13 1 40 -16 65 -40z m1723 -886 c50 -27 97 -76 124 -130 20 -40 21 -57
21 -358 l0 -315 -941 0 -941 0 4 313 c4 347 5 350 75 428 36 40 74 65 123 80
14 4 356 7 760 6 733 -2 735 -2 775 -24z"/>
<path d="M2595 5623 c-191 -25 -408 -108 -579 -221 -94 -62 -281 -248 -343
-342 -98 -147 -166 -303 -204 -470 -26 -111 -36 -318 -20 -402 40 -204 214
-388 422 -445 60 -17 160 -18 1519 -18 1350 0 1460 1 1518 17 179 50 305 155
381 319 44 93 54 162 47 314 -15 337 -142 623 -385 866 -185 184 -370 289
-645 362 -79 21 -97 21 -881 23 -440 1 -813 0 -830 -3z m982 -275 c29 -27 29
-65 1 -95 l-21 -23 -377 0 c-346 0 -378 1 -393 18 -28 30 -30 65 -7 95 l21 27
377 0 c372 0 376 0 399 -22z m455 5 c11 -10 18 -30 18 -54 0 -57 -24 -69 -141
-69 -93 0 -98 1 -118 26 -12 15 -21 34 -21 44 0 10 9 29 21 44 20 25 24 26
121 26 80 0 105 -3 120 -17z m-1371 -308 c53 -21 87 -43 135 -87 191 -179 199
-475 16 -657 -158 -158 -397 -183 -582 -59 -287 191 -256 644 54 789 83 39
134 49 228 44 53 -2 100 -12 149 -30z m1790 6 c253 -96 367 -383 252 -629 -35
-75 -129 -172 -199 -206 -32 -16 -93 -35 -136 -44 -70 -14 -86 -14 -156 0
-108 21 -181 60 -247 129 -173 181 -172 468 1 644 56 57 150 109 224 125 68
14 198 4 261 -19z"/>
<path d="M2473 4813 c9 -2 23 -2 30 0 6 3 -1 5 -18 5 -16 0 -22 -2 -12 -5z"/>
<path d="M2369 4773 c-13 -16 -12 -17 4 -4 9 7 17 15 17 17 0 8 -8 3 -21 -13z"/>
<path d="M2620 4755 c13 -14 26 -25 28 -25 3 0 -5 11 -18 25 -13 14 -26 25
-28 25 -3 0 5 -11 18 -25z"/>
<path d="M2329 4733 c-13 -16 -12 -17 4 -4 9 7 17 15 17 17 0 8 -8 3 -21 -13z"/>
<path d="M2292 4620 c0 -19 2 -27 5 -17 2 9 2 25 0 35 -3 9 -5 1 -5 -18z"/>
<path d="M2350 4485 c13 -14 26 -25 28 -25 3 0 -5 11 -18 25 -13 14 -26 25
-28 25 -3 0 5 -11 18 -25z"/>
<path d="M2619 4483 c-13 -16 -12 -17 4 -4 16 13 21 21 13 21 -2 0 -10 -8 -17
-17z"/>
<path d="M4283 4813 c9 -2 23 -2 30 0 6 3 -1 5 -18 5 -16 0 -22 -2 -12 -5z"/>
<path d="M4390 4786 c0 -2 8 -10 18 -17 15 -13 16 -12 3 4 -13 16 -21 21 -21
13z"/>
<path d="M4154 4758 l-19 -23 23 19 c12 11 22 21 22 23 0 8 -8 2 -26 -19z"/>
<path d="M4482 4620 c0 -19 2 -27 5 -17 2 9 2 25 0 35 -3 9 -5 1 -5 -18z"/>
<path d="M4419 4483 l-24 -28 28 24 c25 23 32 31 24 31 -2 0 -14 -12 -28 -27z"/>
<path d="M4140 4496 c0 -2 8 -10 18 -17 15 -13 16 -12 3 4 -13 16 -21 21 -21
13z"/>
</g>
</svg>
